<?xml version="1.0" encoding="UTF-8" standalone="no"?>
<!DOCTYPE svg PUBLIC "-//W3C//DTD SVG 1.1//EN"
 "http://www.w3.org/Graphics/SVG/1.1/DTD/svg11.dtd">
<!-- Generated by graphviz version 14.1.4 (20260321.0153)
 -->
<!-- Title: crawler_package_deps Pages: 1 -->
<svg width="1110pt" height="1027pt"
 viewBox="0.00 0.00 1110.00 1027.00" xmlns="http://www.w3.org/2000/svg" xmlns:xlink="http://www.w3.org/1999/xlink">
<g id="graph0" class="graph" transform="scale(1 1) rotate(0) translate(4 1022.82)">
<title>crawler_package_deps</title>
<polygon fill="white" stroke="none" points="-4,4 -4,-1022.82 1105.5,-1022.82 1105.5,4 -4,4"/>
<!-- internal -->
<g id="node1" class="node">
<title>internal</title>
<polygon fill="lightblue" stroke="black" points="240.5,-942 164.5,-942 164.5,-906 240.5,-906 240.5,-942"/>
<text xml:space="preserve" text-anchor="middle" x="202.5" y="-917.83" font-family="Consolas" font-size="14.00">internal</text>
</g>
<!-- internal/adapters -->
<g id="node2" class="node">
<title>internal/adapters</title>
<polygon fill="lightblue" stroke="black" points="1075.25,-984 931.75,-984 931.75,-948 1075.25,-948 1075.25,-984"/>
<text xml:space="preserve" text-anchor="middle" x="1003.5" y="-959.83" font-family="Consolas" font-size="14.00">internal/adapters</text>
</g>
<!-- internal&#45;&gt;internal/adapters -->
<g id="edge1" class="edge">
<title>internal&#45;&gt;internal/adapters</title>
<path fill="none" stroke="#666666" d="M240.64,-928.53C260.2,-930.77 284.62,-933.35 306.5,-935 527.77,-951.73 789.35,-960.4 919.82,-963.97"/>
<polygon fill="#666666" stroke="#666666" points="919.67,-967.47 929.76,-964.24 919.86,-960.47 919.67,-967.47"/>
</g>
<!-- internal/ai -->
<g id="node3" class="node">
<title>internal/ai</title>
<polygon fill="lightblue" stroke="black" points="495,-808 396.5,-808 396.5,-772 495,-772 495,-808"/>
<text xml:space="preserve" text-anchor="middle" x="445.75" y="-783.83" font-family="Consolas" font-size="14.00">internal/ai</text>
</g>
<!-- internal&#45;&gt;internal/ai -->
<g id="edge2" class="edge">
<title>internal&#45;&gt;internal/ai</title>
<path fill="none" stroke="#666666" d="M228.64,-905.6C249.09,-891.02 278.96,-870.58 306.5,-855 333.59,-839.68 364.88,-824.74 390.85,-813.06"/>
<polygon fill="#666666" stroke="#666666" points="392.15,-816.31 399.86,-809.05 389.31,-809.92 392.15,-816.31"/>
</g>
<!-- internal/mail -->
<g id="node4" class="node">
<title>internal/mail</title>
<polygon fill="lightblue" stroke="black" points="502.5,-900 389,-900 389,-864 502.5,-864 502.5,-900"/>
<text xml:space="preserve" text-anchor="middle" x="445.75" y="-875.83" font-family="Consolas" font-size="14.00">internal/mail</text>
</g>
<!-- internal&#45;&gt;internal/mail -->
<g id="edge3" class="edge">
<title>internal&#45;&gt;internal/mail</title>
<path fill="none" stroke="#666666" d="M240.93,-917.48C277.33,-911.15 333.45,-901.38 377.59,-893.69"/>
<polygon fill="#666666" stroke="#666666" points="378.08,-897.16 387.33,-892 376.88,-890.26 378.08,-897.16"/>
</g>
<!-- internal/storage -->
<g id="node5" class="node">
<title>internal/storage</title>
<polygon fill="lightblue" stroke="black" points="813.25,-848 677.25,-848 677.25,-812 813.25,-812 813.25,-848"/>
<text xml:space="preserve" text-anchor="middle" x="745.25" y="-823.83" font-family="Consolas" font-size="14.00">internal/storage</text>
</g>
<!-- internal&#45;&gt;internal/storage -->
<g id="edge4" class="edge">
<title>internal&#45;&gt;internal/storage</title>
<path fill="none" stroke="#666666" d="M240.8,-927.62C309.94,-933.23 462.17,-940.35 585,-909 629.25,-897.71 675.56,-873.07 706.76,-854.29"/>
<polygon fill="#666666" stroke="#666666" points="708.34,-857.42 715.04,-849.22 704.69,-851.46 708.34,-857.42"/>
</g>
<!-- internal/ai&#45;&gt;internal/storage -->
<g id="edge6" class="edge">
<title>internal/ai&#45;&gt;internal/storage</title>
<path fill="none" stroke="#666666" d="M495.21,-796.52C541.33,-802.72 611.51,-812.15 665.63,-819.43"/>
<polygon fill="#666666" stroke="#666666" points="665.05,-822.88 675.42,-820.75 665.98,-815.94 665.05,-822.88"/>
</g>
<!-- internal/core -->
<g id="node6" class="node">
<title>internal/core</title>
<polygon fill="lightblue" stroke="black" points="1060.25,-464 946.75,-464 946.75,-428 1060.25,-428 1060.25,-464"/>
<text xml:space="preserve" text-anchor="middle" x="1003.5" y="-439.82" font-family="Consolas" font-size="14.00">internal/core</text>
</g>
<!-- internal/ai&#45;&gt;internal/core -->
<g id="edge5" class="edge">
<title>internal/ai&#45;&gt;internal/core</title>
<path fill="none" stroke="#666666" d="M495.15,-790.36C593.18,-790.18 810.89,-784.8 869.5,-742 959.07,-676.58 989.53,-536.72 998.83,-475.61"/>
<polygon fill="#666666" stroke="#666666" points="1002.25,-476.37 1000.2,-465.98 995.32,-475.38 1002.25,-476.37"/>
</g>
<!-- internal/mail&#45;&gt;internal/storage -->
<g id="edge17" class="edge">
<title>internal/mail&#45;&gt;internal/storage</title>
<path fill="none" stroke="#666666" d="M502.71,-872.22C548.73,-864.17 614.49,-852.68 665.77,-843.72"/>
<polygon fill="#666666" stroke="#666666" points="666.08,-847.22 675.33,-842.05 664.87,-840.32 666.08,-847.22"/>
</g>
<!-- internal/storage&#45;&gt;internal/adapters -->
<g id="edge29" class="edge">
<title>internal/storage&#45;&gt;internal/adapters</title>
<path fill="none" stroke="#666666" d="M781.08,-848.48C826.91,-872.81 907.53,-915.6 957.81,-942.28"/>
<polygon fill="#666666" stroke="#666666" points="955.94,-945.25 966.41,-946.85 959.22,-939.07 955.94,-945.25"/>
</g>
<!-- internal/storage&#45;&gt;internal/core -->
<g id="edge30" class="edge">
<title>internal/storage&#45;&gt;internal/core</title>
<path fill="none" stroke="#666666" d="M813.6,-824.38C833.54,-819.8 854.12,-811.81 869.5,-798 967.19,-710.26 993.47,-543.32 1000.25,-475.62"/>
<polygon fill="#666666" stroke="#666666" points="1003.73,-475.96 1001.16,-465.68 996.76,-475.32 1003.73,-475.96"/>
</g>
<!-- internal/collectors/apidoc -->
<g id="node7" class="node">
<title>internal/collectors/apidoc</title>
<polygon fill="lightblue" stroke="black" points="850.75,-680 639.75,-680 639.75,-644 850.75,-644 850.75,-680"/>
<text xml:space="preserve" text-anchor="middle" x="745.25" y="-655.83" font-family="Consolas" font-size="14.00">internal/collectors/apidoc</text>
</g>
<!-- internal/collectors/apidoc&#45;&gt;internal/core -->
<g id="edge7" class="edge">
<title>internal/collectors/apidoc&#45;&gt;internal/core</title>
<path fill="none" stroke="#666666" d="M851.1,-644.94C857.56,-642.11 863.75,-638.82 869.5,-635 930.08,-594.73 971.56,-516.71 990.61,-474.6"/>
<polygon fill="#666666" stroke="#666666" points="993.74,-476.17 994.57,-465.61 987.33,-473.35 993.74,-476.17"/>
</g>
<!-- internal/collectors/community -->
<g id="node8" class="node">
<title>internal/collectors/community</title>
<polygon fill="lightblue" stroke="black" points="862,-626 628.5,-626 628.5,-590 862,-590 862,-626"/>
<text xml:space="preserve" text-anchor="middle" x="745.25" y="-601.83" font-family="Consolas" font-size="14.00">internal/collectors/community</text>
</g>
<!-- internal/collectors/community&#45;&gt;internal/core -->
<g id="edge8" class="edge">
<title>internal/collectors/community&#45;&gt;internal/core</title>
<path fill="none" stroke="#666666" d="M851.05,-589.57C857.45,-587.07 863.65,-584.23 869.5,-581 918.06,-554.2 960.33,-504.17 983.55,-473.11"/>
<polygon fill="#666666" stroke="#666666" points="986.14,-475.49 989.23,-465.35 980.5,-471.35 986.14,-475.49"/>
</g>
<!-- internal/collectors/conversion -->
<g id="node9" class="node">
<title>internal/collectors/conversion</title>
<polygon fill="lightblue" stroke="black" points="865.75,-572 624.75,-572 624.75,-536 865.75,-536 865.75,-572"/>
<text xml:space="preserve" text-anchor="middle" x="745.25" y="-547.83" font-family="Consolas" font-size="14.00">internal/collectors/conversion</text>
</g>
<!-- internal/collectors/conversion&#45;&gt;internal/core -->
<g id="edge9" class="edge">
<title>internal/collectors/conversion&#45;&gt;internal/core</title>
<path fill="none" stroke="#666666" d="M844.7,-535.54C853.2,-533.02 861.57,-530.18 869.5,-527 905.32,-512.64 942.55,-489.1 968.48,-471.09"/>
<polygon fill="#666666" stroke="#666666" points="970.45,-473.99 976.6,-465.36 966.41,-468.27 970.45,-473.99"/>
</g>
<!-- internal/collectors/integration -->
<g id="node10" class="node">
<title>internal/collectors/integration</title>
<polygon fill="lightblue" stroke="black" points="869.5,-464 621,-464 621,-428 869.5,-428 869.5,-464"/>
<text xml:space="preserve" text-anchor="middle" x="745.25" y="-439.82" font-family="Consolas" font-size="14.00">internal/collectors/integration</text>
</g>
<!-- internal/collectors/integration&#45;&gt;internal/core -->
<g id="edge10" class="edge">
<title>internal/collectors/integration&#45;&gt;internal/core</title>
<path fill="none" stroke="#666666" d="M869.87,-446C892.34,-446 914.99,-446 935.06,-446"/>
<polygon fill="#666666" stroke="#666666" points="935.04,-449.5 945.04,-446 935.04,-442.5 935.04,-449.5"/>
</g>
<!-- internal/collectors/policy -->
<g id="node11" class="node">
<title>internal/collectors/policy</title>
<polygon fill="lightblue" stroke="black" points="850.75,-410 639.75,-410 639.75,-374 850.75,-374 850.75,-410"/>
<text xml:space="preserve" text-anchor="middle" x="745.25" y="-385.82" font-family="Consolas" font-size="14.00">internal/collectors/policy</text>
</g>
<!-- internal/collectors/policy&#45;&gt;internal/core -->
<g id="edge11" class="edge">
<title>internal/collectors/policy&#45;&gt;internal/core</title>
<path fill="none" stroke="#666666" d="M833.72,-410.43C866.91,-417.43 904.15,-425.28 935.2,-431.82"/>
<polygon fill="#666666" stroke="#666666" points="934.35,-435.21 944.85,-433.85 935.79,-428.36 934.35,-435.21"/>
</g>
<!-- internal/collectors/price -->
<g id="node12" class="node">
<title>internal/collectors/price</title>
<polygon fill="lightblue" stroke="black" points="547.5,-380 344,-380 344,-344 547.5,-344 547.5,-380"/>
<text xml:space="preserve" text-anchor="middle" x="445.75" y="-355.82" font-family="Consolas" font-size="14.00">internal/collectors/price</text>
</g>
<!-- internal/collectors/price&#45;&gt;internal/core -->
<g id="edge12" class="edge">
<title>internal/collectors/price&#45;&gt;internal/core</title>
<path fill="none" stroke="#666666" d="M547.97,-347.8C634.97,-339.09 762.9,-334.69 869.5,-365 907.95,-375.93 946.34,-401.25 971.93,-420.7"/>
<polygon fill="#666666" stroke="#666666" points="969.51,-423.25 979.55,-426.63 973.81,-417.73 969.51,-423.25"/>
</g>
<!-- internal/collectors/tool -->
<g id="node13" class="node">
<title>internal/collectors/tool</title>
<polygon fill="lightblue" stroke="black" points="543.75,-288 347.75,-288 347.75,-252 543.75,-252 543.75,-288"/>
<text xml:space="preserve" text-anchor="middle" x="445.75" y="-263.82" font-family="Consolas" font-size="14.00">internal/collectors/tool</text>
</g>
<!-- internal/collectors/tool&#45;&gt;internal/core -->
<g id="edge13" class="edge">
<title>internal/collectors/tool&#45;&gt;internal/core</title>
<path fill="none" stroke="#666666" d="M543.99,-254.95C633.3,-245.75 766.95,-243.91 869.5,-294 924.42,-320.82 966.21,-381.58 987.29,-417.63"/>
<polygon fill="#666666" stroke="#666666" points="984.18,-419.25 992.17,-426.21 990.27,-415.79 984.18,-419.25"/>
</g>
<!-- internal/collectors/usage -->
<g id="node14" class="node">
<title>internal/collectors/usage</title>
<polygon fill="lightblue" stroke="black" points="547.5,-234 344,-234 344,-198 547.5,-198 547.5,-234"/>
<text xml:space="preserve" text-anchor="middle" x="445.75" y="-209.82" font-family="Consolas" font-size="14.00">internal/collectors/usage</text>
</g>
<!-- internal/collectors/usage&#45;&gt;internal/core -->
<g id="edge14" class="edge">
<title>internal/collectors/usage&#45;&gt;internal/core</title>
<path fill="none" stroke="#666666" d="M547.68,-213.11C655.13,-211.79 816.81,-215.31 869.5,-246 935.94,-284.69 975.66,-371.39 992.69,-416.88"/>
<polygon fill="#666666" stroke="#666666" points="989.33,-417.87 996.02,-426.08 995.91,-415.48 989.33,-417.87"/>
</g>
<!-- internal/collectors/useracquisition -->
<g id="node15" class="node">
<title>internal/collectors/useracquisition</title>
<polygon fill="lightblue" stroke="black" points="585,-180 306.5,-180 306.5,-144 585,-144 585,-180"/>
<text xml:space="preserve" text-anchor="middle" x="445.75" y="-155.82" font-family="Consolas" font-size="14.00">internal/collectors/useracquisition</text>
</g>
<!-- internal/collectors/useracquisition&#45;&gt;internal/core -->
<g id="edge15" class="edge">
<title>internal/collectors/useracquisition&#45;&gt;internal/core</title>
<path fill="none" stroke="#666666" d="M585.27,-171.11C699.31,-179.64 845.93,-193.39 869.5,-209 944.13,-258.43 981.19,-364.76 995.38,-416.51"/>
<polygon fill="#666666" stroke="#666666" points="991.97,-417.31 997.9,-426.09 998.74,-415.53 991.97,-417.31"/>
</g>
<!-- internal/collectors/userpain -->
<g id="node16" class="node">
<title>internal/collectors/userpain</title>
<polygon fill="lightblue" stroke="black" points="858.25,-518 632.25,-518 632.25,-482 858.25,-482 858.25,-518"/>
<text xml:space="preserve" text-anchor="middle" x="745.25" y="-493.82" font-family="Consolas" font-size="14.00">internal/collectors/userpain</text>
</g>
<!-- internal/collectors/userpain&#45;&gt;internal/core -->
<g id="edge16" class="edge">
<title>internal/collectors/userpain&#45;&gt;internal/core</title>
<path fill="none" stroke="#666666" d="M833.72,-481.57C866.91,-474.57 904.15,-466.72 935.2,-460.18"/>
<polygon fill="#666666" stroke="#666666" points="935.79,-463.64 944.85,-458.15 934.35,-456.79 935.79,-463.64"/>
</g>
<!-- internal/marketing -->
<g id="node17" class="node">
<title>internal/marketing</title>
<polygon fill="lightblue" stroke="black" points="521.25,-126 370.25,-126 370.25,-90 521.25,-90 521.25,-126"/>
<text xml:space="preserve" text-anchor="middle" x="445.75" y="-101.83" font-family="Consolas" font-size="14.00">internal/marketing</text>
</g>
<!-- internal/marketing&#45;&gt;internal/core -->
<g id="edge18" class="edge">
<title>internal/marketing&#45;&gt;internal/core</title>
<path fill="none" stroke="#666666" d="M521.72,-120.97C552.46,-126.15 588.4,-132.06 621,-137 676.11,-145.35 824.4,-138.25 869.5,-171 953.03,-231.66 986.43,-359.07 997.64,-416.64"/>
<polygon fill="#666666" stroke="#666666" points="994.17,-417.14 999.43,-426.33 1001.05,-415.86 994.17,-417.14"/>
</g>
<!-- internal/marketing/detectors -->
<g id="node18" class="node">
<title>internal/marketing/detectors</title>
<polygon fill="lightblue" stroke="black" points="858.25,-128 632.25,-128 632.25,-92 858.25,-92 858.25,-128"/>
<text xml:space="preserve" text-anchor="middle" x="745.25" y="-103.83" font-family="Consolas" font-size="14.00">internal/marketing/detectors</text>
</g>
<!-- internal/marketing&#45;&gt;internal/marketing/detectors -->
<g id="edge19" class="edge">
<title>internal/marketing&#45;&gt;internal/marketing/detectors</title>
<path fill="none" stroke="#666666" d="M521.44,-108.5C551.44,-108.7 586.83,-108.94 620.47,-109.17"/>
<polygon fill="#666666" stroke="#666666" points="620.27,-112.67 630.29,-109.23 620.32,-105.67 620.27,-112.67"/>
</g>
<!-- internal/marketing/generators -->
<g id="node19" class="node">
<title>internal/marketing/generators</title>
<polygon fill="lightblue" stroke="black" points="862,-36 628.5,-36 628.5,0 862,0 862,-36"/>
<text xml:space="preserve" text-anchor="middle" x="745.25" y="-11.82" font-family="Consolas" font-size="14.00">internal/marketing/generators</text>
</g>
<!-- internal/marketing&#45;&gt;internal/marketing/generators -->
<g id="edge20" class="edge">
<title>internal/marketing&#45;&gt;internal/marketing/generators</title>
<path fill="none" stroke="#666666" d="M499.07,-89.56C533.53,-77.67 579.73,-62.21 621,-50 633.13,-46.41 646,-42.83 658.67,-39.42"/>
<polygon fill="#666666" stroke="#666666" points="659.5,-42.83 668.26,-36.88 657.7,-36.06 659.5,-42.83"/>
</g>
<!-- internal/marketing/types -->
<g id="node20" class="node">
<title>internal/marketing/types</title>
<polygon fill="lightblue" stroke="black" points="1101.5,-82 905.5,-82 905.5,-46 1101.5,-46 1101.5,-82"/>
<text xml:space="preserve" text-anchor="middle" x="1003.5" y="-57.83" font-family="Consolas" font-size="14.00">internal/marketing/types</text>
</g>
<!-- internal/marketing&#45;&gt;internal/marketing/types -->
<g id="edge21" class="edge">
<title>internal/marketing&#45;&gt;internal/marketing/types</title>
<path fill="none" stroke="#666666" d="M521.61,-95.71C552.33,-91.07 588.3,-86.15 621,-83 712.86,-74.14 817.57,-69.3 894.03,-66.73"/>
<polygon fill="#666666" stroke="#666666" points="893.71,-70.24 903.59,-66.41 893.48,-63.24 893.71,-70.24"/>
</g>
<!-- internal/marketing/detectors&#45;&gt;internal/core -->
<g id="edge22" class="edge">
<title>internal/marketing/detectors&#45;&gt;internal/core</title>
<path fill="none" stroke="#666666" d="M848.56,-128.38C856.09,-132.13 863.19,-136.62 869.5,-142 955.79,-215.6 988.02,-355.79 998.3,-416.62"/>
<polygon fill="#666666" stroke="#666666" points="994.8,-416.87 999.84,-426.19 1001.71,-415.76 994.8,-416.87"/>
</g>
<!-- internal/marketing/detectors&#45;&gt;internal/marketing/types -->
<g id="edge23" class="edge">
<title>internal/marketing/detectors&#45;&gt;internal/marketing/types</title>
<path fill="none" stroke="#666666" d="M849,-91.56C863.76,-88.91 878.98,-86.17 893.85,-83.5"/>
<polygon fill="#666666" stroke="#666666" points="894.42,-86.96 903.64,-81.75 893.18,-80.07 894.42,-86.96"/>
</g>
<!-- internal/marketing/generators&#45;&gt;internal/marketing/types -->
<g id="edge24" class="edge">
<title>internal/marketing/generators&#45;&gt;internal/marketing/types</title>
<path fill="none" stroke="#666666" d="M849,-36.44C863.76,-39.09 878.98,-41.83 893.85,-44.5"/>
<polygon fill="#666666" stroke="#666666" points="893.18,-47.93 903.64,-46.25 894.42,-41.04 893.18,-47.93"/>
</g>
<!-- internal/reporter -->
<g id="node21" class="node">
<title>internal/reporter</title>
<polygon fill="lightblue" stroke="black" points="517.5,-716 374,-716 374,-680 517.5,-680 517.5,-716"/>
<text xml:space="preserve" text-anchor="middle" x="445.75" y="-691.83" font-family="Consolas" font-size="14.00">internal/reporter</text>
</g>
<!-- internal/reporter&#45;&gt;internal/storage -->
<g id="edge26" class="edge">
<title>internal/reporter&#45;&gt;internal/storage</title>
<path fill="none" stroke="#666666" d="M517.85,-707.85C540.11,-712.64 564.26,-719.7 585,-730 603.65,-739.27 603.88,-748.14 621,-760 645.41,-776.9 674.18,-793.42 697.79,-806.16"/>
<polygon fill="#666666" stroke="#666666" points="696.09,-809.22 706.56,-810.85 699.39,-803.05 696.09,-809.22"/>
</g>
<!-- internal/reporter&#45;&gt;internal/core -->
<g id="edge25" class="edge">
<title>internal/reporter&#45;&gt;internal/core</title>
<path fill="none" stroke="#666666" d="M517.65,-711.06C622.53,-728.81 812.72,-754.5 869.5,-719 956.91,-664.35 988.38,-533.92 998.37,-475.35"/>
<polygon fill="#666666" stroke="#666666" points="1001.78,-476.24 999.91,-465.81 994.86,-475.13 1001.78,-476.24"/>
</g>
<!-- internal/scheduler -->
<g id="node22" class="node">
<title>internal/scheduler</title>
<polygon fill="lightblue" stroke="black" points="521.25,-662 370.25,-662 370.25,-626 521.25,-626 521.25,-662"/>
<text xml:space="preserve" text-anchor="middle" x="445.75" y="-637.83" font-family="Consolas" font-size="14.00">internal/scheduler</text>
</g>
<!-- internal/scheduler&#45;&gt;internal/storage -->
<g id="edge28" class="edge">
<title>internal/scheduler&#45;&gt;internal/storage</title>
<path fill="none" stroke="#666666" d="M521.73,-648.12C543.45,-652 566.32,-658.91 585,-671 608.29,-686.08 602.44,-701.38 621,-722 648.93,-753.02 685.32,-783.95 711.31,-804.71"/>
<polygon fill="#666666" stroke="#666666" points="708.83,-807.22 718.85,-810.68 713.17,-801.73 708.83,-807.22"/>
</g>
<!-- internal/scheduler&#45;&gt;internal/core -->
<g id="edge27" class="edge">
<title>internal/scheduler&#45;&gt;internal/core</title>
<path fill="none" stroke="#666666" d="M521.62,-654.8C542.44,-658.83 564.86,-664.14 585,-671 601.93,-676.77 603.59,-684.89 621,-689 728.49,-714.37 774.49,-745.31 869.5,-689 948.74,-642.04 983.85,-529.34 996.52,-475.55"/>
<polygon fill="#666666" stroke="#666666" points="999.91,-476.41 998.68,-465.88 993.08,-474.88 999.91,-476.41"/>
</g>
<!-- cmd/crawler -->
<g id="node23" class="node">
<title>cmd/crawler</title>
<polygon fill="lightblue" stroke="black" points="98.5,-896 0,-896 0,-860 98.5,-860 98.5,-896"/>
<text xml:space="preserve" text-anchor="middle" x="49.25" y="-871.83" font-family="Consolas" font-size="14.00">cmd/crawler</text>
</g>
<!-- cmd/crawler&#45;&gt;internal -->
<g id="edge31" class="edge">
<title>cmd/crawler&#45;&gt;internal</title>
<path fill="none" stroke="#666666" d="M98.94,-892.81C116.53,-898.16 136.36,-904.19 153.86,-909.51"/>
<polygon fill="#666666" stroke="#666666" points="152.38,-912.72 162.97,-912.28 154.42,-906.02 152.38,-912.72"/>
</g>
<!-- cmd/crawler&#45;&gt;internal/adapters -->
<g id="edge32" class="edge">
<title>cmd/crawler&#45;&gt;internal/adapters</title>
<path fill="none" stroke="#666666" d="M64.77,-896.27C80.01,-913.9 105.73,-939.56 134.5,-951 405.12,-1058.64 761.76,-1012.32 920.36,-983.15"/>
<polygon fill="#666666" stroke="#666666" points="920.76,-986.63 929.95,-981.36 919.48,-979.75 920.76,-986.63"/>
</g>
<!-- cmd/crawler&#45;&gt;internal/ai -->
<g id="edge33" class="edge">
<title>cmd/crawler&#45;&gt;internal/ai</title>
<path fill="none" stroke="#666666" d="M71.53,-859.59C87.67,-846.74 111.03,-830.43 134.5,-822 217.62,-792.16 320.76,-787.35 384.67,-787.79"/>
<polygon fill="#666666" stroke="#666666" points="384.58,-791.29 394.62,-787.91 384.66,-784.29 384.58,-791.29"/>
</g>
<!-- cmd/crawler&#45;&gt;internal/mail -->
<g id="edge34" class="edge">
<title>cmd/crawler&#45;&gt;internal/mail</title>
<path fill="none" stroke="#666666" d="M98.62,-878.49C168.53,-879.2 298.1,-880.51 377.35,-881.32"/>
<polygon fill="#666666" stroke="#666666" points="377.11,-884.81 387.15,-881.42 377.18,-877.81 377.11,-884.81"/>
</g>
<!-- cmd/crawler&#45;&gt;internal/storage -->
<g id="edge35" class="edge">
<title>cmd/crawler&#45;&gt;internal/storage</title>
<path fill="none" stroke="#666666" d="M98.86,-873.16C150.37,-868.15 234.11,-860.31 306.5,-855 432.01,-845.79 577.98,-838.05 665.64,-833.72"/>
<polygon fill="#666666" stroke="#666666" points="665.76,-837.22 675.58,-833.23 665.42,-830.23 665.76,-837.22"/>
</g>
<!-- cmd/intelligence -->
<g id="node24" class="node">
<title>cmd/intelligence</title>
<polygon fill="lightblue" stroke="black" points="270.5,-483 134.5,-483 134.5,-447 270.5,-447 270.5,-483"/>
<text xml:space="preserve" text-anchor="middle" x="202.5" y="-458.82" font-family="Consolas" font-size="14.00">cmd/intelligence</text>
</g>
<!-- cmd/intelligence&#45;&gt;internal/ai -->
<g id="edge36" class="edge">
<title>cmd/intelligence&#45;&gt;internal/ai</title>
<path fill="none" stroke="#666666" d="M204.15,-483.4C207.02,-535.11 222.53,-682.84 306.5,-758 327.78,-777.05 358.14,-785.41 384.99,-788.85"/>
<polygon fill="#666666" stroke="#666666" points="384.43,-792.31 394.75,-789.88 385.17,-785.35 384.43,-792.31"/>
</g>
<!-- cmd/intelligence&#45;&gt;internal/storage -->
<g id="edge51" class="edge">
<title>cmd/intelligence&#45;&gt;internal/storage</title>
<path fill="none" stroke="#666666" d="M204.71,-483.47C208.96,-531.91 227.58,-663.16 306.5,-725 404.84,-802.05 464.5,-730.05 585,-763 624.38,-773.77 666.9,-792.03 698.1,-806.77"/>
<polygon fill="#666666" stroke="#666666" points="696.32,-809.8 706.85,-810.96 699.35,-803.48 696.32,-809.8"/>
</g>
<!-- cmd/intelligence&#45;&gt;internal/core -->
<g id="edge47" class="edge">
<title>cmd/intelligence&#45;&gt;internal/core</title>
<path fill="none" stroke="#666666" d="M211.35,-446.87C225.41,-417 258.02,-358.44 306.5,-335 419.14,-280.54 751.84,-294.48 869.5,-337 914.91,-353.41 956.02,-392.58 980.14,-419.21"/>
<polygon fill="#666666" stroke="#666666" points="977.41,-421.4 986.65,-426.58 982.65,-416.77 977.41,-421.4"/>
</g>
<!-- cmd/intelligence&#45;&gt;internal/collectors/apidoc -->
<g id="edge37" class="edge">
<title>cmd/intelligence&#45;&gt;internal/collectors/apidoc</title>
<path fill="none" stroke="#666666" d="M215.72,-483.26C232.92,-507.37 266.66,-549.2 306.5,-570 417.78,-628.09 465.66,-578.06 585,-617 602.01,-622.55 604.13,-629.04 621,-635 626.41,-636.91 632.01,-638.72 637.69,-640.41"/>
<polygon fill="#666666" stroke="#666666" points="636.68,-643.76 647.25,-643.13 638.59,-637.03 636.68,-643.76"/>
</g>
<!-- cmd/intelligence&#45;&gt;internal/collectors/community -->
<g id="edge38" class="edge">
<title>cmd/intelligence&#45;&gt;internal/collectors/community</title>
<path fill="none" stroke="#666666" d="M226.64,-483.31C246.65,-498.19 276.92,-518.54 306.5,-530 335.2,-541.12 498.03,-568.66 616.73,-587.84"/>
<polygon fill="#666666" stroke="#666666" points="616.15,-591.29 626.58,-589.43 617.27,-584.38 616.15,-591.29"/>
</g>
<!-- cmd/intelligence&#45;&gt;internal/collectors/conversion -->
<g id="edge39" class="edge">
<title>cmd/intelligence&#45;&gt;internal/collectors/conversion</title>
<path fill="none" stroke="#666666" d="M261.13,-483.43C275.82,-487.67 291.65,-491.86 306.5,-495 408.56,-516.61 525.76,-531.92 613.19,-541.51"/>
<polygon fill="#666666" stroke="#666666" points="612.69,-544.98 623.01,-542.58 613.45,-538.02 612.69,-544.98"/>
</g>
<!-- cmd/intelligence&#45;&gt;internal/collectors/integration -->
<g id="edge40" class="edge">
<title>cmd/intelligence&#45;&gt;internal/collectors/integration</title>
<path fill="none" stroke="#666666" d="M270.89,-462.63C355.25,-459.67 501.73,-454.52 609.46,-450.74"/>
<polygon fill="#666666" stroke="#666666" points="609.37,-454.24 619.24,-450.39 609.12,-447.25 609.37,-454.24"/>
</g>
<!-- cmd/intelligence&#45;&gt;internal/collectors/policy -->
<g id="edge41" class="edge">
<title>cmd/intelligence&#45;&gt;internal/collectors/policy</title>
<path fill="none" stroke="#666666" d="M270.76,-453.54C282.66,-451.61 294.93,-449.69 306.5,-448 415.26,-432.07 539.59,-416.41 627.89,-405.72"/>
<polygon fill="#666666" stroke="#666666" points="628.28,-409.2 637.79,-404.52 627.44,-402.25 628.28,-409.2"/>
</g>
<!-- cmd/intelligence&#45;&gt;internal/collectors/price -->
<g id="edge42" class="edge">
<title>cmd/intelligence&#45;&gt;internal/collectors/price</title>
<path fill="none" stroke="#666666" d="M224.95,-446.6C244.84,-430.45 275.9,-407.5 306.5,-394 315.26,-390.13 324.55,-386.71 334,-383.67"/>
<polygon fill="#666666" stroke="#666666" points="334.73,-387.11 343.28,-380.85 332.69,-380.41 334.73,-387.11"/>
</g>
<!-- cmd/intelligence&#45;&gt;internal/collectors/tool -->
<g id="edge43" class="edge">
<title>cmd/intelligence&#45;&gt;internal/collectors/tool</title>
<path fill="none" stroke="#666666" d="M209.77,-446.51C222.36,-412.29 254.09,-339.21 306.5,-302 315.62,-295.53 325.84,-290.35 336.5,-286.2"/>
<polygon fill="#666666" stroke="#666666" points="337.59,-289.53 345.85,-282.89 335.26,-282.93 337.59,-289.53"/>
</g>
<!-- cmd/intelligence&#45;&gt;internal/collectors/usage -->
<g id="edge44" class="edge">
<title>cmd/intelligence&#45;&gt;internal/collectors/usage</title>
<path fill="none" stroke="#666666" d="M206.3,-446.6C213.87,-403.55 238.94,-295.93 306.5,-243 314.4,-236.81 323.32,-231.91 332.74,-228.04"/>
<polygon fill="#666666" stroke="#666666" points="333.92,-231.34 342.12,-224.63 331.53,-224.76 333.92,-231.34"/>
</g>
<!-- cmd/intelligence&#45;&gt;internal/collectors/useracquisition -->
<g id="edge45" class="edge">
<title>cmd/intelligence&#45;&gt;internal/collectors/useracquisition</title>
<path fill="none" stroke="#666666" d="M204.45,-446.79C208.08,-397 225.36,-257.8 306.5,-189 307.32,-188.31 308.14,-187.63 308.99,-186.97"/>
<polygon fill="#666666" stroke="#666666" points="310.92,-189.89 317.17,-181.33 306.95,-184.13 310.92,-189.89"/>
</g>
<!-- cmd/intelligence&#45;&gt;internal/collectors/userpain -->
<g id="edge46" class="edge">
<title>cmd/intelligence&#45;&gt;internal/collectors/userpain</title>
<path fill="none" stroke="#666666" d="M270.89,-469.36C358.19,-475.01 512.02,-484.97 620.58,-492"/>
<polygon fill="#666666" stroke="#666666" points="620.22,-495.48 630.42,-492.63 620.67,-488.49 620.22,-495.48"/>
</g>
<!-- cmd/intelligence&#45;&gt;internal/marketing -->
<g id="edge48" class="edge">
<title>cmd/intelligence&#45;&gt;internal/marketing</title>
<path fill="none" stroke="#666666" d="M203.18,-446.63C203.29,-390.5 211.73,-219.9 306.5,-135 320.96,-122.04 339.76,-114.52 358.8,-110.32"/>
<polygon fill="#666666" stroke="#666666" points="359.35,-113.78 368.53,-108.49 358.05,-106.9 359.35,-113.78"/>
</g>
<!-- cmd/intelligence&#45;&gt;internal/reporter -->
<g id="edge49" class="edge">
<title>cmd/intelligence&#45;&gt;internal/reporter</title>
<path fill="none" stroke="#666666" d="M206.99,-483.31C215.78,-524.09 242.84,-622.6 306.5,-671 322.52,-683.18 342.53,-690.32 362.31,-694.4"/>
<polygon fill="#666666" stroke="#666666" points="361.62,-697.83 372.08,-696.15 362.85,-690.94 361.62,-697.83"/>
</g>
<!-- cmd/intelligence&#45;&gt;internal/scheduler -->
<g id="edge50" class="edge">
<title>cmd/intelligence&#45;&gt;internal/scheduler</title>
<path fill="none" stroke="#666666" d="M210.94,-483.17C224.8,-514.63 257.68,-579.06 306.5,-612 322.05,-622.49 340.58,-629.57 358.93,-634.34"/>
<polygon fill="#666666" stroke="#666666" points="358,-637.72 368.53,-636.61 359.61,-630.91 358,-637.72"/>
</g>
</g>
</svg>
